<svg width="1047" height="131" viewBox="0 0 1047 131" fill="none" xmlns="http://www.w3.org/2000/svg">
<path d="M29 13.375V0.625488H0V130.375H29V118.375H12.4615V13.375H29Z" fill="black"/>
<path d="M64.8003 56.575H71.2324C75.4311 56.575 78.7811 55.503 81.2825 53.359C83.7838 51.215 85.0345 48.491 85.0345 45.185C85.0345 41.612 83.9625 38.798 81.8185 36.743C79.7638 34.599 76.5477 33.527 72.1704 33.527H64.8003V56.575ZM64.8003 99.724H72.5724C77.3964 99.724 81.0591 98.473 83.5605 95.972C86.0618 93.381 87.3125 89.942 87.3125 85.654C87.3125 81.008 85.8385 77.569 82.8905 75.336C79.9424 73.013 76.0564 71.852 71.2324 71.852H64.8003V99.724ZM46.3081 18.251H72.3044C82.3098 18.251 89.9926 20.306 95.3526 24.415C100.802 28.524 103.527 34.778 103.527 43.175C103.527 51.751 99.5513 58.451 91.6006 63.275C94.1019 64.883 96.246 66.491 98.0326 68.1C99.9087 69.618 101.383 71.316 102.455 73.192C103.616 74.978 104.465 76.988 105.001 79.222C105.537 81.455 105.805 84.09 105.805 87.128C105.805 91.952 105.001 96.106 103.393 99.59C101.874 103.074 99.6853 105.977 96.8266 108.3C94.0573 110.533 90.6626 112.231 86.6425 113.392C82.7118 114.464 78.2898 115 73.3764 115H46.3081V18.251ZM133.9 60.327H143.414C147.523 60.327 150.74 59.3 153.062 57.245C155.385 55.101 156.546 51.662 156.546 46.927C156.546 42.193 155.385 38.798 153.062 36.743C150.74 34.599 147.523 33.527 143.414 33.527H133.9V60.327ZM158.824 115L142.744 75.604H133.9V115H115.408V18.251H142.208C153.375 18.251 161.638 20.797 166.998 25.889C172.358 30.892 175.038 37.994 175.038 47.195C175.038 53.27 173.877 58.407 171.554 62.605C169.321 66.804 165.614 69.886 160.432 71.852L178.656 115H158.824ZM204.34 78.284H222.698L213.72 39.155H213.452L204.34 78.284ZM177.941 115L201.928 18.251H225.646L248.962 115H231.274L226.584 94.632H200.99L195.764 115H177.941ZM254.679 115V18.251H274.913L300.642 75.604H300.91V18.251H317.794V115H300.106L271.831 52.555H271.563V115H254.679ZM348.658 98.652H355.09C360.182 98.652 364.113 97.267 366.882 94.498C369.741 91.639 371.17 86.592 371.17 79.356V53.895C371.17 47.017 369.92 42.103 367.418 39.155C365.006 36.118 360.897 34.599 355.09 34.599H348.658V98.652ZM330.166 18.251H355.894C361.165 18.251 365.855 18.876 369.964 20.127C374.074 21.288 377.558 23.209 380.417 25.889C383.275 28.569 385.464 32.053 386.983 36.341C388.591 40.54 389.484 45.677 389.663 51.751V81.5C389.484 87.574 388.591 92.756 386.983 97.044C385.464 101.243 383.275 104.682 380.417 107.362C377.558 110.042 374.074 112.007 369.964 113.258C365.855 114.419 361.165 115 355.894 115H330.166V18.251ZM472.071 45.185C470.553 40.629 468.721 37.324 466.577 35.269C464.433 33.214 461.753 32.187 458.537 32.187C455.232 32.187 452.686 33.125 450.899 35.001C449.202 36.877 448.353 39.468 448.353 42.773C448.353 45.185 449.38 47.329 451.435 49.205C453.49 50.992 456.036 52.734 459.073 54.431C462.111 56.129 465.416 57.96 468.989 59.925C472.563 61.801 475.868 64.035 478.905 66.625C481.943 69.216 484.489 72.298 486.544 75.872C488.598 79.445 489.626 83.733 489.626 88.736C489.626 92.934 488.911 96.731 487.482 100.126C486.142 103.521 484.132 106.424 481.452 108.836C478.861 111.248 475.645 113.124 471.803 114.464C467.962 115.715 463.629 116.34 458.805 116.34C451.212 116.34 444.646 114.196 439.107 109.908C433.658 105.62 429.682 98.696 427.181 89.138L445.405 85.252C445.941 88.2 446.7 90.701 447.683 92.756C448.755 94.721 449.961 96.329 451.301 97.58C452.641 98.83 454.026 99.724 455.455 100.26C456.974 100.796 458.403 101.064 459.743 101.064C462.959 101.064 465.639 100.081 467.783 98.116C470.017 96.061 471.133 93.202 471.133 89.54C471.133 86.502 470.106 83.912 468.051 81.768C465.997 79.534 463.451 77.48 460.413 75.604C457.376 73.728 454.071 71.896 450.497 70.11C446.924 68.234 443.618 66.134 440.581 63.811C437.544 61.399 434.998 58.63 432.943 55.503C430.888 52.377 429.861 48.535 429.861 43.979C429.861 35.582 432.273 28.971 437.097 24.147C442.01 19.323 449.291 16.911 458.939 16.911C463.049 16.911 466.756 17.492 470.061 18.653C473.367 19.814 476.27 21.467 478.771 23.611C481.273 25.666 483.328 28.122 484.936 30.981C486.633 33.84 487.884 36.967 488.688 40.361L472.071 45.185ZM556.313 18.251V34.599H534.739V115H516.247V34.599H494.673V18.251H556.313ZM576.801 78.284H595.159L586.181 39.155H585.913L576.801 78.284ZM550.403 115L574.389 18.251H598.107L621.423 115H603.735L599.045 94.632H573.451L568.225 115H550.403ZM627.14 115V18.251H647.375L673.103 75.604H673.371V18.251H690.255V115H672.567L644.293 52.555H644.025V115H627.14ZM721.119 98.652H727.551C732.643 98.652 736.574 97.267 739.344 94.498C742.202 91.639 743.632 86.592 743.632 79.356V53.895C743.632 47.017 742.381 42.103 739.88 39.155C737.467 36.118 733.358 34.599 727.551 34.599H721.119V98.652ZM702.627 18.251H728.355C733.626 18.251 738.316 18.876 742.426 20.127C746.535 21.288 750.019 23.209 752.878 25.889C755.736 28.569 757.925 32.053 759.444 36.341C761.052 40.54 761.945 45.677 762.124 51.751V81.5C761.945 87.574 761.052 92.756 759.444 97.044C757.925 101.243 755.736 104.682 752.878 107.362C750.019 110.042 746.535 112.007 742.426 113.258C738.316 114.419 733.626 115 728.355 115H702.627V18.251ZM820.546 86.324C820.546 91.684 821.618 95.302 823.762 97.178C825.906 99.054 828.854 99.992 832.606 99.992C836.358 99.992 839.306 99.054 841.45 97.178C843.595 95.302 844.667 91.684 844.667 86.324V46.927C844.667 41.567 843.595 37.949 841.45 36.073C839.306 34.197 836.358 33.259 832.606 33.259C828.854 33.259 825.906 34.197 823.762 36.073C821.618 37.949 820.546 41.567 820.546 46.927V86.324ZM802.054 49.339C802.054 43.354 802.813 38.307 804.332 34.197C805.851 30.088 807.95 26.782 810.63 24.281C813.31 21.69 816.526 19.814 820.278 18.653C824.03 17.492 828.14 16.911 832.606 16.911C837.073 16.911 841.182 17.492 844.935 18.653C848.687 19.814 851.903 21.69 854.583 24.281C857.263 26.782 859.362 30.088 860.881 34.197C862.399 38.307 863.159 43.354 863.159 49.339V83.912C863.159 89.897 862.399 94.944 860.881 99.054C859.362 103.163 857.263 106.513 854.583 109.104C851.903 111.605 848.687 113.437 844.935 114.598C841.182 115.759 837.073 116.34 832.606 116.34C828.14 116.34 824.03 115.759 820.278 114.598C816.526 113.437 813.31 111.605 810.63 109.104C807.95 106.513 805.851 103.163 804.332 99.054C802.813 94.944 802.054 89.897 802.054 83.912V49.339ZM892.326 18.251V85.922C892.326 90.567 893.353 94.096 895.408 96.508C897.463 98.83 900.768 99.992 905.324 99.992C914.079 99.992 918.456 95.302 918.456 85.922V18.251H936.949V86.056C936.949 91.416 936.189 96.016 934.67 99.858C933.152 103.61 931.008 106.737 928.238 109.238C925.469 111.65 922.119 113.437 918.188 114.598C914.347 115.759 910.059 116.34 905.324 116.34C900.589 116.34 896.257 115.759 892.326 114.598C888.485 113.437 885.179 111.65 882.41 109.238C879.641 106.737 877.497 103.61 875.978 99.858C874.549 96.016 873.834 91.416 873.834 86.056V18.251H892.326ZM1005.33 18.251V34.599H983.759V115H965.267V34.599H943.693V18.251H1005.33Z" fill="black"/>
<path d="M1018 117.625V130.375H1047V0.625488H1018V12.625H1034.54V117.625H1018Z" fill="black"/>
</svg>
