<svg width="581" height="342" viewBox="0 0 581 342" fill="none" xmlns="http://www.w3.org/2000/svg">
<path d="M523.644 78.4548C519.535 71.0291 514.008 64.1562 511.725 56.3219C504.419 31.2091 520.136 7.03354 546.186 1.53036C556.856 -0.728593 567.237 0.617164 577.403 3.9335C578.917 4.41412 580.887 6.88936 580.791 8.30721C580.094 17.2949 578.869 26.2587 577.763 35.6549C571.923 34.2851 567.814 32.9394 563.561 32.4107C549.983 30.7045 540.803 40.6775 543.206 54.0389C545.032 64.1802 551.208 71.2454 559.187 76.9889C560.773 78.1424 563.272 78.3347 565.387 78.4068C570.337 78.599 575.288 78.4789 580.599 78.4789V107.934H565.286C565.286 132.662 565.002 156.389 565.002 180.468C565.002 204.548 565.002 228.291 565.002 252.634H527.61V173.98H489.832C489.832 178.225 491.344 181.429 489.024 193.166C486.65 199.682 486.318 200.897 482.453 204.597C481.671 205.345 481.177 205.562 480.469 205.916C480.469 205.916 470.911 210.121 460.346 203.154C444.273 190.86 439.484 174.065 442.779 162.132C443.383 159.942 443.91 158.764 445.31 156.264C448.435 151.314 450.156 149.865 453.21 147.664C456.799 145.076 459.511 143.783 465.061 142.288C466.848 141.807 467.622 141.303 472.722 141.249C488.511 141.081 504.299 141.177 520.088 141.177C522.251 141.177 524.413 141.177 526.985 141.177V107.934H425.212V252.682H388.083V107.934H281.377L281.48 136.587C290.059 129.305 299.528 126.181 310.174 125.388C336.152 123.418 358.285 141.153 361.312 166.962C365.47 202.144 342.231 228.242 307.29 227.858C302.916 227.81 300.849 226.632 300.225 222.042C299.047 213.367 297.269 204.788 295.635 195.632C298.422 195.632 300.777 195.632 303.132 195.632C313.971 195.632 321.516 190.393 323.944 181.165C326.347 172.057 323.151 163.214 316.013 159.176C308.083 154.706 296.043 156.437 289.314 163.045C282.85 169.39 281.192 177.512 281.144 186.067C281.024 206.422 281.096 226.777 281.096 247.131C281.096 248.885 281.096 250.64 281.096 252.706H245.097V200.823C242.838 202 241.348 202.769 239.858 203.586C222.699 212.934 197.346 210.243 183.817 197.482C176.006 190.105 172.378 180.612 171.993 170.207C171.32 152.087 171.32 133.919 171.032 115.776C171.008 113.42 171.032 111.154 171.032 107.934C158.824 107.934 147.365 108 135.5 108C132.5 108 132.5 108 132.5 108C132.5 108 132.726 132.502 132.606 142.934C132.606 145.073 132.606 148.098 132.606 150.958C124.844 150.958 117.706 150.958 110.569 150.958C99.1781 150.982 87.7872 150.909 76.3963 151.126C69.1388 151.27 66.0388 153.937 66.7597 158.768C67.8171 165.905 74.2815 171.961 79.8328 170.759C91.1275 168.308 102.35 165.521 113.693 163.238C116.385 162.685 119.653 162.901 122.2 163.886C142.915 172.009 148.346 194.815 146.208 210.243C142.05 240.114 117.658 253.764 92.9059 255.061C57.4836 256.888 32.8514 239.946 16.2217 209.738C14.7318 207.023 14.5876 205.268 17.3993 203.274C24.2482 198.468 30.8809 193.349 38.2585 187.87C39.6043 190.201 40.7097 192.171 41.8632 194.142C51.9324 211.3 65.8706 222.763 86.4655 224.397C100.187 225.503 110.257 219.567 112.54 208.705C113.116 205.941 112.66 202.793 112.035 199.982C111.05 195.656 108.646 193.902 103.768 195.464C96.0059 197.963 87.8833 199.381 80.1212 201.928C75 203 69.293 201.928 66.5434 200.462C49.5052 191.378 36.0957 179.242 31.4096 159.657C26.1707 137.836 37.7779 122.384 60.1991 121.543C69.7877 121.183 79.3762 121.423 88.9887 121.399C91.1275 121.399 93.2904 121.399 95.8377 121.399V107.934C93.3144 107.934 90.8811 107.934 88.5741 107.934C61.4545 107.934 34.3349 107.934 7.21664 107.934C2.13039 107.934 0.853935 106.663 0.769531 101.429C0.769531 95.2214 0.853949 88.8653 0.817594 82.8766C0.796118 79.3389 2.12518 78.2717 5.51513 78.2717C7.38974 78.2717 8.82173 78.2717 10.6001 78.2717C123.524 78.2717 236.566 78.3827 349.489 78.3827C405.843 78.3827 462.196 78.3827 518.55 78.3827H523.693L523.644 78.4548ZM209.242 108.134C209.242 127.142 209.05 145.454 209.362 163.766C209.458 169.149 212.005 174.196 217.773 175.614C230.365 178.69 244.256 174.028 244.808 157.398C245.097 148.05 244.88 138.653 244.88 129.305C244.88 122.384 244.879 115.239 244.879 107.934H209.242V108.134Z" fill="black"/>
<path d="M14.3972 301.315C22.4477 293.698 30.2011 286.494 38.54 278.636C40.6067 281.207 42.3851 283.466 44.2355 285.677C54.6411 298.125 66.2722 309.204 82.95 311.944C89.5106 313.025 96.9363 312.448 103.305 310.478C111.067 308.074 113.638 299.207 109.961 292.839C106.645 287.095 98.8348 285.701 92.0579 290.075C89.1021 291.973 86.6749 294.713 83.7431 297.308C76.6778 290.844 69.6366 284.403 62.235 277.627C66.4885 271.234 71.9917 266.764 78.6244 263.953C91.0967 258.69 104.002 257.512 117.195 261.093C133.608 265.563 144.278 277.146 145.672 291.973C147.45 311.006 139.856 326.266 124.62 334.052C108.736 342.151 91.8897 342.439 74.9716 339.027C50.3875 334.076 30.7145 320.709 14.3972 301.315Z" fill="black"/>
<path d="M469.038 22.822C461.059 45.772 438.47 65.4056 399.058 63.0025C374.282 61.4885 350.443 44.8828 344.219 22.7499C353.279 18.28 362.483 13.7621 372.384 8.88376C378.463 24.6964 389.374 32.8911 406.148 32.9152C422.873 32.9152 434.288 25.5615 440.32 8.81167C450.101 13.5939 459.473 17.1728 469.038 21.8349V22.822Z" fill="black"/>
</svg>
