<svg width="1280" height="296" viewBox="0 0 1280 296" fill="none" xmlns="http://www.w3.org/2000/svg">
<path d="M208.216 155.685C208.216 254.506 172.66 291.107 87.6173 291.107H0.00878906V5.62289H87.6173C172.66 5.62289 208.216 42.2234 208.216 141.045V155.685ZM59.392 239.866H84.3182C133.804 239.866 147.734 212.782 147.734 155.685V141.045C147.734 83.9479 133.804 56.8636 84.3182 56.8636H59.392V239.866Z" fill="#EAEEF5"/>
<path d="M325.548 295.865C247.837 295.865 222.91 262.924 222.91 200.704V5.62289H282.294V198.874C282.294 229.252 291.824 244.624 325.548 244.624C359.272 244.624 369.169 229.252 369.169 198.874V5.62289H428.552V200.704C428.552 262.924 403.259 295.865 325.548 295.865Z" fill="#EAEEF5"/>
<path d="M449.478 5.62289H622.862V56.8636H508.861V119.816H604.534V171.057H508.861V291.107H449.478V5.62289Z" fill="#EAEEF5"/>
<path d="M734.967 295.865C660.922 295.865 626.098 254.506 626.098 155.685V141.045C626.098 42.2234 660.922 0.864822 734.967 0.864822C809.379 0.864822 844.203 42.2234 844.203 141.045V155.685C844.203 254.506 809.379 295.865 734.967 295.865ZM733.501 244.624H736.8C773.456 244.624 783.72 212.782 783.72 155.685V141.045C783.72 83.9479 773.456 52.1055 736.8 52.1055H733.501C696.845 52.1055 686.214 83.9479 686.214 141.045V155.685C686.214 212.782 696.845 244.624 733.501 244.624Z" fill="#EAEEF5"/>
<path d="M920.027 188.625V291.107H860.644V5.62289H954.484C1001.04 5.62289 1053.82 17.7011 1053.82 93.4641V100.784C1053.82 146.901 1034.39 169.593 1008.74 180.207L1053.82 291.107H989.674L950.452 188.625H920.027ZM920.027 137.385H957.05C973.179 137.385 993.706 131.163 993.706 98.9541V95.2941C993.706 63.0857 973.179 56.8636 957.05 56.8636H920.027V137.385Z" fill="#EAEEF5"/>
<path d="M1280.01 5.62289V291.107H1217.33L1124.95 113.96L1126.79 171.423V291.107H1070.7V5.62289H1133.38L1225.39 182.769L1223.56 125.307V5.62289H1280.01Z" fill="#EAEEF5"/>
</svg>
