<svg width="958" height="61" viewBox="0 0 958 61" fill="none" xmlns="http://www.w3.org/2000/svg">
<path d="M20.0688 0.818899L17.6938 12.6937L18.0214 13.1032L28.9135 7.5343L31.0427 14.823L19.086 16.2971L18.9222 16.7885L27.6031 25.3056L21.461 29.9736L16.2197 18.9997H15.7283L10.487 29.9736L4.34487 25.3056L13.0258 16.7885L12.862 16.2971L0.905273 14.823L3.03457 7.5343L13.9266 13.1032L14.2542 12.6937L11.8792 0.818899H20.0688ZM54.5732 0.818899H65.0552L72.9992 39.4735H73.1632L81.2712 0.818899H92.1632L100.352 39.4735H100.516L108.378 0.818899H118.942L106.003 59.9473H95.1112L86.8392 19.491H86.6762L77.7492 59.9473H66.9392L54.5732 0.818899ZM122.71 59.9473V0.818899H153.667V10.8102H134.012V24.4048H148.999V34.396H134.012V49.9561H154.486V59.9473H122.71ZM179.899 59.9473V0.818899H209.382V10.8102H191.201V24.4048H205.451V34.396H191.201V59.9473H179.899ZM223.331 42.4217C223.331 45.6975 223.986 47.9087 225.297 49.0552C226.607 50.2018 228.409 50.775 230.702 50.775C232.995 50.775 234.797 50.2018 236.107 49.0552C237.417 47.9087 238.072 45.6975 238.072 42.4217V18.3445C238.072 15.0687 237.417 12.8575 236.107 11.711C234.797 10.5645 232.995 9.9912 230.702 9.9912C228.409 9.9912 226.607 10.5645 225.297 11.711C223.986 12.8575 223.331 15.0687 223.331 18.3445V42.4217ZM212.03 19.8186C212.03 16.1606 212.494 13.0759 213.422 10.5645C214.35 8.053 215.633 6.0329 217.271 4.5042C218.909 2.9209 220.874 1.7744 223.167 1.0646C225.461 0.3549 227.972 0 230.702 0C233.432 0 235.943 0.3549 238.236 1.0646C240.529 1.7744 242.495 2.9209 244.133 4.5042C245.771 6.0329 247.054 8.053 247.982 10.5645C248.91 13.0759 249.374 16.1606 249.374 19.8186V40.9476C249.374 44.6056 248.91 47.6903 247.982 50.2018C247.054 52.7132 245.771 54.7606 244.133 56.3439C242.495 57.8726 240.529 58.9919 238.236 59.7016C235.943 60.4114 233.432 60.7663 230.702 60.7663C227.972 60.7663 225.461 60.4114 223.167 59.7016C220.874 58.9919 218.909 57.8726 217.271 56.3439C215.633 54.7606 214.35 52.7132 213.422 50.2018C212.494 47.6903 212.03 44.6056 212.03 40.9476V19.8186ZM265.562 42.4217C265.562 45.6975 266.217 47.9087 267.527 49.0552C268.838 50.2018 270.639 50.775 272.932 50.775C275.225 50.775 277.027 50.2018 278.337 49.0552C279.648 47.9087 280.303 45.6975 280.303 42.4217V38.4907H291.604V40.9476C291.604 44.6056 291.14 47.6903 290.212 50.2018C289.284 52.7132 288.001 54.7606 286.363 56.3439C284.725 57.8726 282.76 58.9919 280.467 59.7016C278.174 60.4114 275.662 60.7663 272.932 60.7663C270.202 60.7663 267.691 60.4114 265.398 59.7016C263.105 58.9919 261.139 57.8726 259.501 56.3439C257.864 54.7606 256.581 52.7132 255.652 50.2018C254.724 47.6903 254.26 44.6056 254.26 40.9476V19.8186C254.26 16.1606 254.724 13.0759 255.652 10.5645C256.581 8.053 257.864 6.0329 259.501 4.5042C261.139 2.9209 263.105 1.7744 265.398 1.0646C267.691 0.3549 270.202 0 272.932 0C275.662 0 278.174 0.3549 280.467 1.0646C282.76 1.7744 284.725 2.9209 286.363 4.5042C288.001 6.0329 289.284 8.053 290.212 10.5645C291.14 13.0759 291.604 16.1606 291.604 19.8186V19.9824H280.303V18.3445C280.303 15.0687 279.648 12.8575 278.337 11.711C277.027 10.5645 275.225 9.9912 272.932 9.9912C270.639 9.9912 268.838 10.5645 267.527 11.711C266.217 12.8575 265.562 15.0687 265.562 18.3445V42.4217ZM309.43 0.818899V42.176C309.43 45.0151 310.058 47.1716 311.314 48.6458C312.569 50.0653 314.589 50.775 317.374 50.775C322.724 50.775 325.4 47.9087 325.4 42.176V0.818899H336.701V42.2579C336.701 45.5337 336.237 48.3455 335.309 50.6931C334.381 52.9862 333.07 54.8971 331.378 56.4258C329.685 57.8999 327.638 58.9919 325.236 59.7016C322.888 60.4114 320.268 60.7663 317.374 60.7663C314.48 60.7663 311.832 60.4114 309.43 59.7016C307.082 58.9919 305.062 57.8999 303.37 56.4258C301.677 54.8971 300.367 52.9862 299.439 50.6931C298.565 48.3455 298.129 45.5337 298.129 42.2579V0.818899H309.43ZM369.24 17.2799C368.312 14.4954 367.193 12.4754 365.883 11.2196C364.572 9.9639 362.935 9.336 360.969 9.336C358.949 9.336 357.393 9.9093 356.301 11.0558C355.264 12.2024 354.745 13.7857 354.745 15.8058C354.745 17.2799 355.373 18.5902 356.629 19.7367C357.884 20.8287 359.44 21.8933 361.297 22.9306C363.153 23.968 365.173 25.0872 367.357 26.2884C369.541 27.4349 371.561 28.7998 373.417 30.3831C375.273 31.9664 376.829 33.85 378.085 36.0339C379.341 38.2178 379.969 40.8384 379.969 43.8958C379.969 46.4619 379.532 48.7822 378.658 50.8569C377.839 52.9316 376.611 54.706 374.973 56.1801C373.39 57.6542 371.424 58.8008 369.077 59.6197C366.729 60.3841 364.081 60.7663 361.133 60.7663C356.492 60.7663 352.479 59.4559 349.094 56.8353C345.764 54.2146 343.334 49.9834 341.806 44.1415L352.943 41.7666C353.271 43.5683 353.735 45.097 354.336 46.3527C354.991 47.5538 355.728 48.5366 356.547 49.3009C357.366 50.0653 358.212 50.6112 359.085 50.9388C360.014 51.2664 360.887 51.4302 361.706 51.4302C363.672 51.4302 365.309 50.8296 366.62 49.6285C367.985 48.3728 368.667 46.6257 368.667 44.3872C368.667 42.5309 368.039 40.9476 366.784 39.6373C365.528 38.2724 363.972 37.0166 362.116 35.8701C360.259 34.7236 358.239 33.6043 356.055 32.5124C353.871 31.3659 351.851 30.0828 349.995 28.6633C348.139 27.1892 346.583 25.4967 345.327 23.5858C344.071 21.6749 343.443 19.3273 343.443 16.5428C343.443 11.4107 344.918 7.3706 347.866 4.4223C350.869 1.4741 355.318 0 361.215 0C363.726 0 365.992 0.3549 368.012 1.0646C370.032 1.7744 371.807 2.7844 373.335 4.0947C374.864 5.3505 376.12 6.8519 377.102 8.599C378.14 10.3461 378.904 12.257 379.395 14.3316L369.24 17.2799ZM416.329 42.4217C416.329 45.6975 416.984 47.9087 418.294 49.0552C419.605 50.2018 421.406 50.775 423.699 50.775C425.993 50.775 427.794 50.2018 429.105 49.0552C430.415 47.9087 431.07 45.6975 431.07 42.4217V18.3445C431.07 15.0687 430.415 12.8575 429.105 11.711C427.794 10.5645 425.993 9.9912 423.699 9.9912C421.406 9.9912 419.605 10.5645 418.294 11.711C416.984 12.8575 416.329 15.0687 416.329 18.3445V42.4217ZM405.027 19.8186C405.027 16.1606 405.491 13.0759 406.42 10.5645C407.348 8.053 408.631 6.0329 410.269 4.5042C411.907 2.9209 413.872 1.7744 416.165 1.0646C418.458 0.3549 420.97 0 423.699 0C426.429 0 428.941 0.3549 431.234 1.0646C433.527 1.7744 435.492 2.9209 437.13 4.5042C438.768 6.0329 440.051 8.053 440.979 10.5645C441.908 13.0759 442.372 16.1606 442.372 19.8186V40.9476C442.372 44.6056 441.908 47.6903 440.979 50.2018C440.051 52.7132 438.768 54.7606 437.13 56.3439C435.492 57.8726 433.527 58.9919 431.234 59.7016C428.941 60.4114 426.429 60.7663 423.699 60.7663C420.97 60.7663 418.458 60.4114 416.165 59.7016C413.872 58.9919 411.907 57.8726 410.269 56.3439C408.631 54.7606 407.348 52.7132 406.42 50.2018C405.491 47.6903 405.027 44.6056 405.027 40.9476V19.8186ZM448.896 59.9473V0.818899H461.262L476.986 35.8701H477.15V0.818899H487.468V59.9473H476.658L459.378 21.7841H459.215V59.9473H448.896ZM515.202 59.9473V0.818899H531.008L541.245 39.6373H541.409L551.645 0.818899H567.451V59.9473H557.788V13.4308H557.624L545.585 59.9473H537.068L525.03 13.4308H524.866V59.9473H515.202ZM587.132 37.508H598.352L592.865 13.5946H592.701L587.132 37.508ZM570.999 59.9473L585.658 0.818899H600.154L614.403 59.9473H603.593L600.727 47.4992H585.085L581.891 59.9473H570.999ZM617.242 59.9473V0.818899H628.544V25.2237H628.708L643.367 0.818899H655.733L640.501 24.6504L657.453 59.9473H644.759L632.966 35.133L628.544 41.8485V59.9473H617.242ZM660.128 59.9473V0.818899H671.429V59.9473H660.128ZM679.645 59.9473V0.818899H692.011L707.735 35.8701H707.899V0.818899H718.218V59.9473H707.408L690.128 21.7841H689.964V59.9473H679.645ZM754.033 55.0336C752.504 56.7807 750.894 58.1729 749.201 59.2102C747.509 60.2476 745.598 60.7663 743.468 60.7663C740.739 60.7663 738.227 60.4114 735.934 59.7016C733.641 58.9919 731.676 57.8726 730.038 56.3439C728.4 54.7606 727.117 52.7132 726.189 50.2018C725.26 47.6903 724.796 44.6056 724.796 40.9476V19.8186C724.796 16.1606 725.26 13.0759 726.189 10.5645C727.117 8.053 728.4 6.0329 730.038 4.5042C731.676 2.9209 733.641 1.7744 735.934 1.0646C738.227 0.3549 740.739 0 743.468 0C749.256 0 753.678 1.6652 756.735 4.9956C759.793 8.2714 761.431 13.2943 761.649 20.0643H750.348C750.348 16.2425 749.72 13.6219 748.464 12.2024C747.208 10.7283 745.543 9.9912 743.468 9.9912C741.175 9.9912 739.374 10.5645 738.063 11.711C736.753 12.8575 736.098 15.0687 736.098 18.3445V42.4217C736.098 45.6975 736.753 47.9087 738.063 49.0552C739.374 50.2018 741.175 50.775 743.468 50.775C745.598 50.775 747.263 50.0653 748.464 48.6458C749.72 47.1716 750.348 45.1516 750.348 42.5855V38.9821H742.404V29.6461H761.649V59.9473H755.753L754.033 55.0336ZM805.38 24.6504L814.962 0.818899H827L810.867 36.0339V59.9473H799.565V36.0339L783.432 0.818899H795.471L805.38 24.6504ZM840.076 42.4217C840.076 45.6975 840.731 47.9087 842.042 49.0552C843.352 50.2018 845.154 50.775 847.447 50.775C849.74 50.775 851.541 50.2018 852.852 49.0552C854.162 47.9087 854.817 45.6975 854.817 42.4217V18.3445C854.817 15.0687 854.162 12.8575 852.852 11.711C851.541 10.5645 849.74 9.9912 847.447 9.9912C845.154 9.9912 843.352 10.5645 842.042 11.711C840.731 12.8575 840.076 15.0687 840.076 18.3445V42.4217ZM828.775 19.8186C828.775 16.1606 829.239 13.0759 830.167 10.5645C831.095 8.053 832.378 6.0329 834.016 4.5042C835.654 2.9209 837.619 1.7744 839.912 1.0646C842.205 0.3549 844.717 0 847.447 0C850.176 0 852.688 0.3549 854.981 1.0646C857.274 1.7744 859.24 2.9209 860.877 4.5042C862.515 6.0329 863.798 8.053 864.727 10.5645C865.655 13.0759 866.119 16.1606 866.119 19.8186V40.9476C866.119 44.6056 865.655 47.6903 864.727 50.2018C863.798 52.7132 862.515 54.7606 860.877 56.3439C859.24 57.8726 857.274 58.9919 854.981 59.7016C852.688 60.4114 850.176 60.7663 847.447 60.7663C844.717 60.7663 842.205 60.4114 839.912 59.7016C837.619 58.9919 835.654 57.8726 834.016 56.3439C832.378 54.7606 831.095 52.7132 830.167 50.2018C829.239 47.6903 828.775 44.6056 828.775 40.9476V19.8186ZM883.944 0.818899V42.176C883.944 45.0151 884.572 47.1716 885.828 48.6458C887.084 50.0653 889.104 50.775 891.888 50.775C897.239 50.775 899.914 47.9087 899.914 42.176V0.818899H911.215V42.2579C911.215 45.5337 910.751 48.3455 909.823 50.6931C908.895 52.9862 907.585 54.8971 905.892 56.4258C904.2 57.8999 902.152 58.9919 899.75 59.7016C897.402 60.4114 894.782 60.7663 891.888 60.7663C888.995 60.7663 886.347 60.4114 883.944 59.7016C881.597 58.9919 879.577 57.8999 877.884 56.4258C876.192 54.8971 874.881 52.9862 873.953 50.6931C873.08 48.3455 872.643 45.5337 872.643 42.2579V0.818899H883.944ZM930.078 26.534H935.893C938.404 26.534 940.37 25.9062 941.789 24.6504C943.209 23.3401 943.919 21.2381 943.919 18.3445C943.919 15.4509 943.209 13.3762 941.789 12.1205C940.37 10.8102 938.404 10.155 935.893 10.155H930.078V26.534ZM945.311 59.9473L935.483 35.8701H930.078V59.9473H918.777V0.818899H935.156C941.98 0.818899 947.031 2.3749 950.306 5.487C953.582 8.5444 955.22 12.8848 955.22 18.5083C955.22 22.2209 954.51 25.3602 953.091 27.9263C951.726 30.4923 949.46 32.3759 946.294 33.577L957.43 59.9473H945.311Z" fill="black"/>
</svg>
